<svg width="712" height="483" viewBox="0 0 712 483" fill="none" xmlns="http://www.w3.org/2000/svg">
<g id="me.svg" clip-path="url(#clip0_3_34)">
<path id="Vector" d="M73.0316 412.703C53.5207 427.248 47.9911 452.838 47.9911 452.838C47.9911 452.838 74.0948 454.847 93.6057 440.303C113.117 425.759 118.646 400.168 118.646 400.168C118.646 400.168 92.5424 398.159 73.0316 412.703Z" fill="#F1F1F1"/>
<path id="Vector_2" d="M81.159 419.532C71.7819 441.988 48.2972 453.56 48.2972 453.56C48.2972 453.56 40.0157 428.724 49.3928 406.267C58.7699 383.811 82.2546 372.239 82.2546 372.239C82.2546 372.239 90.536 397.076 81.159 419.532Z" fill="#F1F1F1"/>
<path id="Vector_3" d="M642.502 354.614C640.429 340.65 639.882 326.501 640.869 312.419L642.502 289.112C633.502 307.02 635.536 330.59 642.502 354.614Z" fill="#CACACA"/>
<path id="Vector_4" d="M649.521 358.513C648.523 350.18 648.26 341.776 648.735 333.397L649.521 319.523C645.19 330.183 646.169 344.213 649.521 358.513Z" fill="#CACACA"/>
<path id="Vector_5" d="M680.716 375.67V383.468C680.713 384.088 680.465 384.681 680.027 385.119C679.589 385.557 678.996 385.804 678.376 385.808H674.477C674.375 385.807 674.273 385.827 674.179 385.866C674.084 385.905 673.998 385.963 673.925 386.035C673.853 386.108 673.795 386.194 673.756 386.289C673.717 386.383 673.697 386.485 673.698 386.587V450.53C673.694 451.15 673.447 451.743 673.009 452.181C672.571 452.619 671.978 452.866 671.358 452.87H623.791C623.171 452.869 622.576 452.623 622.137 452.184C621.699 451.745 621.452 451.151 621.452 450.53V386.587C621.451 386.381 621.369 386.183 621.223 386.037C621.076 385.891 620.878 385.808 620.672 385.808H615.993C615.373 385.807 614.778 385.56 614.34 385.122C613.901 384.683 613.654 384.088 613.654 383.468V375.67C613.653 375.363 613.714 375.059 613.831 374.775C613.948 374.491 614.121 374.232 614.338 374.015C614.555 373.798 614.813 373.626 615.097 373.508C615.381 373.391 615.686 373.33 615.993 373.331H678.376C678.996 373.333 679.59 373.58 680.029 374.018C680.467 374.456 680.714 375.05 680.716 375.67Z" fill="#F2F2F2"/>
<path id="Vector_6" d="M673.768 387.445H621.522V389.784H673.768V387.445Z" fill="#E6E6E6"/>
<path id="Vector_7" d="M673.698 421.869C656.215 429.104 638.542 429.183 620.672 421.869V405.388C637.875 399.61 656.495 399.61 673.698 405.388V421.869Z" fill="#E6E6E6"/>
<path id="Ellipse 276" d="M380.853 169.877C419.88 169.877 451.518 138.238 451.518 99.2107C451.518 60.183 419.88 28.5448 380.853 28.5448C341.825 28.5448 310.187 60.183 310.187 99.2107C310.187 138.238 341.825 169.877 380.853 169.877Z" fill="#FEB8B8"/>
<path id="Path 1461" d="M446.855 38.246C436.29 21.0899 419.752 8.44813 400.425 2.75434L391.75 9.08513V0.864782C387.108 0.15437 382.41 -0.119301 377.718 0.0473682L370.233 6.81957V0.610006C359.151 1.98709 348.475 5.64536 338.878 11.3541C329.28 17.0629 320.969 24.6983 314.47 33.7789C298.216 57.2111 295.472 89.8105 311.459 113.431C315.847 99.9436 321.174 87.2889 325.563 73.803C329.013 74.2732 332.508 74.2902 335.962 73.8535L341.301 61.3949L342.793 73.3262C359.343 71.8849 383.889 68.7188 399.578 65.8184L398.052 56.6648L407.18 64.2709C411.986 63.1646 414.84 62.1606 414.605 61.3936C426.273 80.2048 440.553 92.2192 452.22 111.03C456.652 84.5056 461.752 62.4507 446.855 38.246Z" fill="#2F2E41"/>
<path id="Vector_8" d="M532.835 280.93C530.405 266.311 527.898 251.411 521.104 238.241C516.639 229.615 509.55 221.395 499.994 219.689C498.112 219.521 496.262 219.093 494.498 218.417C491.698 217.068 454.073 195.589 448.092 191.848C442.958 188.637 434.852 182.69 430.765 182.69C426.654 182.6 410.888 186.269 349.352 181.459C349.352 181.459 332.447 188.122 319.366 196.202C319.168 196.071 255.497 230.262 253.105 230.172C248.575 229.982 244.364 232.882 241.767 236.535C239.171 240.187 237.953 244.709 236.678 249.08C250.585 280.05 263.309 311.06 277.217 342.03C277.868 343.196 278.214 344.509 278.223 345.844C277.943 347.231 277.351 348.535 276.492 349.659C269.672 360.615 269.889 374.395 270.634 387.272C271.38 400.149 272.302 413.75 266.547 425.292C264.982 428.461 262.946 431.361 261.457 434.53C257.971 441.707 256.711 464.661 258.747 472.372L513.868 479.68C508.383 464.602 532.835 280.93 532.835 280.93Z" fill="#6C63FF"/>
<path id="Path 1421" d="M214.625 343.403C214.116 347.085 214.065 350.817 214.473 354.512L218.129 407.024C218.473 411.974 218.811 416.911 219.275 421.848C220.152 431.429 221.463 440.934 223.09 450.426C223.126 451.773 223.696 453.051 224.674 453.979C225.652 454.907 226.958 455.409 228.306 455.375C244.402 458.781 261.032 458.645 277.459 457.717C302.526 456.318 366.657 453.671 370.575 448.581C374.493 443.491 372.21 435.259 367.101 431.143C361.992 427.028 277.362 416.994 277.362 416.994C278.189 410.441 280.684 404.27 283.05 398.048C287.301 387.013 291.271 375.616 291.347 363.795C291.423 351.974 286.97 339.545 277.286 332.773C269.321 327.213 259.065 326.182 249.358 326.411C242.296 326.614 230.093 324.922 223.643 327.683C218.538 329.931 215.579 338.405 214.625 343.403Z" fill="#FBBEBE"/>
<path id="Path 1430" d="M235.942 250.023C234.703 251.321 233.742 252.858 233.118 254.541C222.833 277.72 216.758 302.546 215.177 327.856C215.205 329.09 214.921 330.312 214.35 331.406C213.788 332.135 213.162 332.812 212.48 333.429C211.885 334.134 211.435 334.95 211.155 335.829C210.876 336.708 210.772 337.633 210.85 338.552C210.928 339.472 211.186 340.366 211.61 341.186C212.034 342.005 212.615 342.733 213.32 343.328C213.435 343.425 213.554 343.519 213.676 343.609C215.775 339.658 220.801 338.367 225.268 338.023C246.657 336.331 267.55 346.282 289.002 345.531C287.489 340.301 285.312 335.275 284.077 329.983C278.619 306.481 292.234 280.894 283.887 258.257C282.219 253.727 279.433 249.274 275.044 247.289C273.226 246.556 271.324 246.052 269.382 245.79C263.961 244.811 253.17 240.624 247.929 242.304C245.995 242.928 245.232 244.747 243.628 245.846C241.192 247.402 237.961 247.974 235.942 250.023Z" fill="#6C63FF"/>
<path id="Path 1421_2" d="M532.988 327.683C526.537 324.922 514.334 326.614 507.272 326.411C497.565 326.182 487.31 327.213 479.344 332.773C469.661 339.545 465.207 351.974 465.283 363.795C465.36 375.616 469.33 387.013 473.58 398.048C475.946 404.27 478.441 410.441 479.268 416.994C479.268 416.994 394.638 427.028 389.529 431.143C384.42 435.259 382.137 443.491 386.055 448.581C389.973 453.671 512.228 458.781 528.324 455.375C529.672 455.409 530.978 454.907 531.956 453.979C532.934 453.051 533.504 451.773 533.541 450.426C535.167 440.934 536.478 431.429 537.355 421.848C537.82 416.911 538.158 411.974 538.501 407.024L542.157 354.512C542.565 350.817 542.514 347.086 542.005 343.403C541.051 338.405 538.092 329.931 532.988 327.683Z" fill="#FBBEBE"/>
<path id="Path 1430_2" d="M513.002 245.846C511.399 244.747 510.636 242.928 508.701 242.304C503.46 240.624 492.669 244.811 487.248 245.79C485.306 246.052 483.404 246.556 481.587 247.289C477.197 249.274 474.411 253.727 472.744 258.257C464.397 280.894 478.012 306.481 472.553 329.983C471.319 335.275 469.142 340.301 467.628 345.531C489.081 346.282 509.974 336.331 531.362 338.023C535.829 338.367 540.855 339.658 542.954 343.609C543.076 343.519 543.195 343.425 543.311 343.328C544.016 342.733 544.597 342.005 545.021 341.186C545.444 340.366 545.703 339.472 545.781 338.552C545.859 337.633 545.755 336.708 545.475 335.829C545.195 334.95 544.745 334.135 544.151 333.429C543.468 332.812 542.842 332.135 542.28 331.406C541.71 330.312 541.425 329.09 541.453 327.856C539.873 302.546 533.798 277.72 523.513 254.541C522.889 252.858 521.928 251.321 520.688 250.023C518.669 247.974 515.438 247.402 513.002 245.846Z" fill="#6C63FF"/>
<path id="Vector_9" d="M359.924 457.883C370.457 457.883 378.996 449.344 378.996 438.81C378.996 428.277 370.457 419.738 359.924 419.738C349.39 419.738 340.851 428.277 340.851 438.81C340.851 449.344 349.39 457.883 359.924 457.883Z" fill="#FBBEBE"/>
<path id="Vector_10" d="M402.156 457.883C412.69 457.883 421.229 449.344 421.229 438.81C421.229 428.277 412.69 419.738 402.156 419.738C391.623 419.738 383.083 428.277 383.083 438.81C383.083 449.344 391.623 457.883 402.156 457.883Z" fill="#FBBEBE"/>
<path id="Vector_11" d="M519.888 481.788H257.857C254.797 481.785 251.865 480.568 249.701 478.405C247.538 476.242 246.321 473.309 246.317 470.25V311.283C246.321 308.224 247.538 305.291 249.701 303.128C251.865 300.965 254.797 299.748 257.857 299.744H519.888C522.947 299.748 525.88 300.965 528.043 303.128C530.206 305.291 531.423 308.224 531.427 311.283V470.25C531.423 473.309 530.206 476.242 528.043 478.405C525.88 480.568 522.947 481.785 519.888 481.788Z" fill="#3F3D56"/>
<path id="Ellipse 263" d="M388.237 398.401C392.453 398.401 395.871 394.983 395.871 390.766C395.871 386.55 392.453 383.132 388.237 383.132C384.02 383.132 380.602 386.55 380.602 390.766C380.602 394.983 384.02 398.401 388.237 398.401Z" fill="white"/>
<path id="Vector_12" d="M817.63 449.724H-61V476.724H-9.03V483H765.68V476.724H817.63V449.724Z" fill="#F1F1F1"/>
<path id="Vector_13" d="M315.871 125.549C304.516 125.549 295.311 115.597 295.311 103.32V92.205C295.311 79.928 304.516 69.9756 315.871 69.9756L315.871 125.549Z" fill="#6C63FF"/>
<path id="Vector_14" d="M447.094 69.9756C458.449 69.9756 467.654 79.928 467.654 92.205V103.32C467.654 115.597 458.449 125.549 447.094 125.549V69.9756Z" fill="#6C63FF"/>
<path id="Vector_15" d="M457.868 93.9516H454.606C454.606 49.2216 420.949 12.8309 379.58 12.8309C338.21 12.8309 304.554 49.2216 304.554 93.9516H301.292C301.292 47.2767 336.412 9.30399 379.58 9.30399C422.748 9.30401 457.868 47.2768 457.868 93.9516Z" fill="#6C63FF"/>
</g>
<defs>
<clipPath id="clip0_3_34">
<rect width="878.63" height="483" fill="white" transform="translate(-61)"/>
</clipPath>
</defs>
</svg>
