<svg width="540" height="367" viewBox="0 0 540 367" fill="none" xmlns="http://www.w3.org/2000/svg">
<g id="undraw_coding_re_iv62 (2) 2" clip-path="url(#clip0_5_73)">
<path id="leaf-left" d="M78.8836 321.234C65.0715 334.634 61.157 358.211 61.157 358.211C61.157 358.211 79.6363 360.062 93.4484 346.662C107.261 333.262 111.175 309.685 111.175 309.685C111.175 309.685 92.6957 307.834 78.8836 321.234Z" fill="#F1F1F1"/>
<path id="leaf-right" d="M445.732 324.541C439.094 345.231 422.469 355.892 422.469 355.892C422.469 355.892 416.606 333.01 423.245 312.32C429.883 291.631 446.508 280.969 446.508 280.969C446.508 280.969 452.371 303.852 445.732 324.541Z" fill="#F1F1F1"/>
<path id="smoke-2" d="M482.023 267.715C480.556 254.849 480.168 241.814 480.867 228.839L482.023 207.366C475.652 223.865 477.092 245.581 482.023 267.715Z" fill="#CACACA"/>
<path id="smoke-1" d="M486.992 271.307C486.285 263.63 486.099 255.887 486.435 248.167L486.992 235.385C483.926 245.206 484.619 258.132 486.992 271.307Z" fill="#CACACA"/>
<path id="Vector" d="M509.075 287.114V294.299C509.073 294.869 508.898 295.416 508.588 295.82C508.278 296.223 507.858 296.451 507.419 296.454H504.659C504.587 296.454 504.515 296.472 504.448 296.508C504.38 296.544 504.319 296.597 504.268 296.664C504.217 296.731 504.176 296.81 504.149 296.897C504.121 296.985 504.107 297.078 504.107 297.173V356.085C504.105 356.655 503.93 357.202 503.619 357.606C503.309 358.009 502.89 358.237 502.451 358.24H468.777C468.338 358.24 467.917 358.012 467.607 357.608C467.296 357.204 467.121 356.656 467.121 356.085V297.173C467.121 296.982 467.062 296.8 466.959 296.665C466.855 296.531 466.715 296.455 466.569 296.454H463.257C462.818 296.454 462.397 296.226 462.086 295.822C461.776 295.418 461.601 294.87 461.601 294.299V287.114C461.601 286.831 461.643 286.551 461.726 286.289C461.809 286.027 461.931 285.79 462.085 285.589C462.239 285.389 462.422 285.23 462.623 285.122C462.824 285.014 463.039 284.959 463.257 284.959H507.419C507.858 284.961 508.279 285.188 508.589 285.592C508.899 285.996 509.074 286.543 509.075 287.114Z" fill="#F2F2F2"/>
<path id="Vector_2" d="M504.157 297.963H467.171V300.118H504.157V297.963Z" fill="#E6E6E6"/>
<path id="Vector_3" d="M504.107 329.678C491.731 336.344 479.219 336.417 466.569 329.678V314.494C478.748 309.171 491.929 309.171 504.107 314.494V329.678Z" fill="#E6E6E6"/>
<path id="Vector_4" d="M355.462 371.828H201.867C200.074 371.826 198.355 371.258 197.087 370.248C195.818 369.237 195.105 367.867 195.103 366.438V292.186C195.105 290.757 195.818 289.387 197.087 288.376C198.355 287.366 200.074 286.798 201.867 286.796H355.462C357.255 286.798 354.194 293.846 355.462 294.856C356.73 295.867 362.224 290.757 362.226 292.186V366.438C362.224 367.867 361.511 369.237 360.243 370.248C358.975 371.258 357.255 371.826 355.462 371.828Z" fill="#3F3D56"/>
<path id="Ellipse 263" d="M302.024 308.057C305.008 308.057 307.428 304.907 307.428 301.023C307.428 297.138 305.008 293.989 302.024 293.989C299.039 293.989 296.619 297.138 296.619 301.023C296.619 304.907 299.039 308.057 302.024 308.057Z" fill="white"/>
<path id="Vector_5" d="M606 355.342H-16V380.218H20.7906V386H569.223V380.218H606V355.342Z" fill="#F1F1F1"/>
<g id="me" clip-path="url(#clip1_5_73)">
<path id="Ellipse 276" d="M295.409 207.569C303.098 207.678 309.398 199.874 309.479 190.139C309.561 180.403 303.393 172.423 295.704 172.314C288.015 172.205 281.715 180.009 281.634 189.744C281.553 199.479 287.72 207.46 295.409 207.569Z" fill="#FEB8B8"/>
<path id="Path 1461" d="M308.688 174.918C306.642 170.609 303.41 167.41 299.614 165.935L297.892 167.49L297.909 165.44C296.996 165.25 296.071 165.168 295.146 165.197L293.657 166.865L293.67 165.316C291.484 165.629 289.373 166.512 287.47 167.909C285.567 169.306 283.914 171.187 282.614 173.434C279.363 179.234 278.755 187.358 281.855 193.295C282.748 189.943 283.824 186.801 284.717 183.449C285.395 183.576 286.084 183.59 286.765 183.491L287.843 180.398L288.112 183.378C291.376 183.065 296.218 182.344 299.316 181.664L299.034 179.376L300.816 181.299C301.766 181.037 302.33 180.794 302.285 180.602C304.545 185.327 307.333 188.364 309.593 193.089C310.521 186.485 311.572 180.997 308.688 174.918Z" fill="#2F2E41"/>
<path id="Vector_6" d="M325.121 235.695C324.673 232.041 324.21 228.317 322.899 225.013C322.037 222.849 320.658 220.779 318.778 220.327C318.408 220.279 318.044 220.167 317.698 219.994C317.149 219.65 309.781 214.187 308.611 213.237C307.606 212.422 306.021 210.916 305.216 210.904C304.406 210.87 301.292 211.741 289.179 210.37C289.179 210.37 285.834 211.985 283.24 213.964C283.201 213.931 270.586 222.282 270.115 222.253C269.223 222.192 268.387 222.904 267.868 223.808C267.349 224.712 267.099 225.836 266.839 226.923C269.514 234.687 271.956 242.458 274.632 250.222C274.758 250.515 274.823 250.843 274.822 251.176C274.764 251.522 274.645 251.845 274.473 252.123C273.107 254.837 273.121 258.275 273.24 261.489C273.361 264.703 273.514 268.099 272.356 270.962C272.041 271.748 271.634 272.466 271.334 273.252C270.632 275.032 270.336 280.755 270.721 282.684L320.969 285.219C319.92 281.442 325.121 235.695 325.121 235.695Z" fill="#6C63FF"/>
<path id="Path 1421" d="M262.297 250.39C262.189 251.307 262.171 252.238 262.244 253.161L262.855 266.27C262.912 267.505 262.969 268.738 263.05 269.971C263.203 272.363 263.441 274.738 263.742 277.11C263.746 277.446 263.856 277.767 264.046 278.001C264.237 278.235 264.494 278.364 264.759 278.359C267.923 279.254 271.2 279.266 274.438 279.08C279.38 278.801 292.02 278.32 292.803 277.061C293.586 275.803 293.153 273.743 292.155 272.702C291.157 271.661 274.504 268.922 274.504 268.922C274.681 267.29 275.185 265.757 275.664 264.212C276.525 261.471 277.331 258.639 277.37 255.691C277.41 252.742 276.559 249.63 274.665 247.913C273.107 246.504 271.089 246.218 269.176 246.248C267.784 246.279 265.383 245.823 264.107 246.494C263.096 247.04 262.496 249.146 262.297 250.39Z" fill="#FBBEBE"/>
<path id="Path 1430" d="M266.692 227.156C266.445 227.477 266.252 227.857 266.126 228.275C264.051 234.029 262.803 240.205 262.438 246.514C262.441 246.821 262.383 247.125 262.268 247.397C262.156 247.577 262.031 247.744 261.895 247.896C261.777 248.07 261.686 248.273 261.629 248.491C261.573 248.71 261.55 248.94 261.564 249.17C261.577 249.399 261.626 249.623 261.708 249.829C261.79 250.034 261.903 250.217 262.04 250.368C262.063 250.392 262.086 250.416 262.11 250.439C262.532 249.459 263.525 249.151 264.405 249.078C268.623 248.715 272.718 251.256 276.947 251.128C276.659 249.82 276.241 248.56 276.009 247.236C274.982 241.359 277.718 235.014 276.121 229.344C275.802 228.21 275.262 227.091 274.401 226.583C274.045 226.396 273.671 226.265 273.289 226.194C272.223 225.934 270.106 224.86 269.07 225.264C268.687 225.415 268.533 225.866 268.215 226.136C267.732 226.517 267.094 226.651 266.692 227.156Z" fill="#6C63FF"/>
<path id="Path 1421_2" d="M325.053 247.357C323.788 246.651 321.381 247.039 319.99 246.968C318.078 246.884 316.055 247.113 314.474 248.477C312.552 250.14 311.649 253.227 311.639 256.176C311.629 259.125 312.388 261.979 313.202 264.744C313.655 266.302 314.134 267.849 314.283 269.486C314.283 269.486 297.589 271.752 296.574 272.765C295.558 273.777 295.091 275.824 295.853 277.105C296.614 278.385 320.69 280.001 323.868 279.196C324.134 279.209 324.392 279.087 324.587 278.858C324.781 278.63 324.896 278.312 324.906 277.976C325.247 275.613 325.525 273.246 325.717 270.858C325.819 269.628 325.896 268.398 325.974 267.164L326.804 254.075C326.892 253.155 326.89 252.224 326.797 251.304C326.62 250.054 326.054 247.932 325.053 247.357Z" fill="#FBBEBE"/>
<path id="Path 1430_2" d="M321.287 226.888C320.973 226.609 320.827 226.153 320.447 225.992C319.418 225.558 317.283 226.573 316.213 226.802C315.83 226.862 315.454 226.982 315.094 227.16C314.225 227.643 313.667 228.746 313.329 229.871C311.637 235.494 314.266 241.915 313.142 247.762C312.888 249.079 312.448 250.326 312.139 251.627C316.364 251.874 320.501 249.45 324.712 249.932C325.591 250.03 326.579 250.366 326.984 251.358C327.008 251.335 327.032 251.312 327.055 251.288C327.195 251.142 327.311 250.962 327.396 250.759C327.481 250.556 327.534 250.333 327.551 250.104C327.569 249.875 327.55 249.644 327.497 249.424C327.443 249.204 327.357 248.999 327.241 248.822C327.108 248.666 326.986 248.495 326.877 248.312C326.766 248.037 326.713 247.732 326.721 247.424C326.462 241.106 325.317 234.896 323.339 229.086C323.22 228.664 323.034 228.278 322.792 227.951C322.399 227.434 321.763 227.282 321.287 226.888Z" fill="#6C63FF"/>
<path id="Vector_7" d="M310.741 188.844L310.098 188.835C310.192 177.678 303.637 168.506 295.486 168.391C287.336 168.275 280.629 177.259 280.535 188.417L279.893 188.407C279.99 176.765 286.988 167.39 295.493 167.511C303.998 167.631 310.838 177.202 310.741 188.844Z" fill="#6C63FF"/>
</g>
<path id="Vector_8" d="M61.7339 28.97C65.1768 28.97 67.9679 26.3956 67.9679 23.22C67.9679 20.0443 65.1768 17.47 61.7339 17.47C58.2909 17.47 55.4999 20.0443 55.4999 23.22C55.4999 26.3956 58.2909 28.97 61.7339 28.97Z" fill="#E6E6E6"/>
<path id="clock" d="M41.6955 135.399C68.4775 135.399 90.188 113.537 90.188 86.5692C90.188 59.601 68.4775 37.739 41.6955 37.739C14.9138 37.739 -6.797 59.601 -6.797 86.5692C-6.797 113.537 14.9138 135.399 41.6955 135.399Z" fill="#6C63FF"/>
<g id="clock_2" clip-path="url(#clip2_5_73)">
<path id="Vector_9" d="M106.353 129.596C106.353 129.619 106.349 129.641 106.34 129.662C106.331 129.683 106.318 129.702 106.302 129.718C106.285 129.734 106.266 129.746 106.245 129.755C106.223 129.763 106.2 129.768 106.177 129.768H6.71205C6.66543 129.768 6.62071 129.75 6.58774 129.718C6.55478 129.685 6.53625 129.642 6.53625 129.596C6.53625 129.551 6.55478 129.507 6.58774 129.475C6.62071 129.442 6.66543 129.424 6.71205 129.424H106.177C106.2 129.424 106.223 129.429 106.245 129.437C106.266 129.446 106.285 129.459 106.302 129.474C106.318 129.49 106.331 129.509 106.34 129.53C106.349 129.551 106.353 129.574 106.353 129.596Z" fill="#CCCCCC"/>
<path id="Vector_10" d="M47.7525 122.274C65.2942 122.274 79.5145 108.38 79.5145 91.2419C79.5145 74.1036 65.2942 60.2102 47.7525 60.2102C30.2109 60.2102 15.9906 74.1036 15.9906 91.2419C15.9906 108.38 30.2109 122.274 47.7525 122.274Z" fill="#E6E6E6"/>
<path id="Vector_11" d="M75.0826 91.242C75.0858 95.4084 74.0896 99.5177 72.1739 103.24C70.2583 106.963 67.4765 110.195 64.0516 112.677C63.8226 112.844 63.5892 113.008 63.3543 113.166C58.7744 116.277 53.3302 117.944 47.7525 117.944C42.1748 117.944 36.7307 116.277 32.1508 113.166C31.9159 113.008 31.6825 112.844 31.4535 112.677C28.0309 110.192 25.2509 106.96 23.3355 103.238C21.4201 99.516 20.4225 95.4079 20.4225 91.242C20.4225 87.0761 21.4201 82.968 23.3355 79.2461C25.2509 75.5241 28.0309 72.2916 31.4535 69.807C31.6825 69.6396 31.9159 69.4765 32.1508 69.3177C36.7307 66.2074 42.1748 64.5403 47.7525 64.5403C53.3302 64.5403 58.7744 66.2074 63.3543 69.3177C63.5892 69.4765 63.8226 69.6396 64.0516 69.807C67.4765 72.2895 70.2583 75.5215 72.1739 79.2439C74.0896 82.9663 75.0858 87.0755 75.0826 91.242Z" fill="white"/>
<path id="Vector_12" d="M47.7526 115.634C61.5412 115.634 72.719 104.714 72.719 91.242C72.719 77.7704 61.5412 66.8496 47.7526 66.8496C33.9641 66.8496 22.7863 77.7704 22.7863 91.242C22.7863 104.714 33.9641 115.634 47.7526 115.634Z" fill="#6C63FF"/>
<path id="Vector_13" opacity="0.2" d="M47.8177 66.918C47.4392 66.918 47.0631 66.9276 46.6887 66.9439C52.9988 67.4857 58.8622 70.3506 63.091 74.9584C67.3198 79.5661 69.5977 85.5721 69.4633 91.7595C69.3288 97.9469 66.7921 103.853 62.367 108.281C57.942 112.71 51.9594 115.329 45.6315 115.609C46.3521 115.67 47.0809 115.703 47.8177 115.703C54.4392 115.703 60.7895 113.133 65.4716 108.558C70.1537 103.984 72.784 97.7796 72.784 91.3104C72.784 84.8411 70.1537 78.6368 65.4716 74.0623C60.7895 69.4879 54.4392 66.918 47.8177 66.918Z" fill="black"/>
<path id="Vector_14" d="M47.8264 65.1177C47.6111 65.118 47.4046 65.2018 47.2523 65.3506C47.1 65.4994 47.0143 65.7011 47.0139 65.9115V69.3755C47.0139 69.5861 47.0995 69.788 47.2519 69.9368C47.4043 70.0857 47.6109 70.1694 47.8264 70.1694C48.0419 70.1694 48.2486 70.0857 48.401 69.9368C48.5533 69.788 48.6389 69.5861 48.6389 69.3755V65.9115C48.6386 65.7011 48.5528 65.4994 48.4005 65.3506C48.2482 65.2018 48.0418 65.118 47.8264 65.1177Z" fill="white"/>
<path id="Vector_15" d="M64.0517 69.8071C63.8227 69.6397 63.5893 69.4766 63.3544 69.3178C63.2134 69.3089 63.0725 69.336 62.9456 69.3965C62.8186 69.457 62.71 69.5488 62.6305 69.6628L60.6347 72.5249C60.5134 72.6989 60.4679 72.9128 60.508 73.1196C60.5482 73.3264 60.6708 73.5092 60.8489 73.6276C61.027 73.7461 61.2459 73.7906 61.4576 73.7514C61.6692 73.7121 61.8563 73.5923 61.9775 73.4184L63.9734 70.5562C64.0493 70.4476 64.0963 70.3222 64.1099 70.1914C64.1236 70.0606 64.1036 69.9285 64.0517 69.8071Z" fill="white"/>
<path id="Vector_16" d="M73.1193 82.8577C73.0792 82.7612 73.02 82.6734 72.9451 82.5992C72.8703 82.5251 72.7812 82.4661 72.6829 82.4256C72.5847 82.3851 72.4793 82.364 72.3726 82.3633C72.266 82.3626 72.1603 82.3825 72.0616 82.4218L68.7761 83.7251C68.5767 83.8045 68.4176 83.958 68.334 84.1518C68.2503 84.3457 68.2488 84.5641 68.3299 84.759C68.4109 84.9539 68.5679 85.1094 68.7662 85.1913C68.9646 85.2733 69.1881 85.2749 69.3877 85.1959L72.6732 83.8926C72.8725 83.8128 73.0314 83.6591 73.115 83.4651C73.1986 83.2712 73.2002 83.0528 73.1193 82.8577Z" fill="white"/>
<path id="Vector_17" d="M34.8705 72.5249L32.8747 69.6628C32.7952 69.5488 32.6866 69.457 32.5596 69.3965C32.4327 69.336 32.2918 69.3089 32.1508 69.3178C31.9159 69.4766 31.6825 69.6397 31.4536 69.8071C31.4016 69.9285 31.3816 70.0606 31.3953 70.1914C31.409 70.3222 31.4559 70.4476 31.5318 70.5562L33.5277 73.4184C33.6489 73.5923 33.836 73.7121 34.0476 73.7514C34.2593 73.7906 34.4783 73.7461 34.6563 73.6276C34.8344 73.5092 34.957 73.3264 34.9972 73.1196C35.0374 72.9128 34.9918 72.6989 34.8705 72.5249Z" fill="white"/>
<path id="Vector_18" d="M26.7292 83.7252L23.4437 82.4218C23.244 82.3427 23.0204 82.3442 22.8219 82.4261C22.6235 82.5079 22.4664 82.6635 22.3853 82.8585C22.3042 83.0535 22.3057 83.272 22.3895 83.4659C22.4733 83.6599 22.6325 83.8133 22.8321 83.8926L26.1176 85.1959C26.3171 85.2749 26.5407 85.2733 26.739 85.1914C26.9374 85.1095 27.0943 84.954 27.1754 84.759C27.2564 84.5641 27.255 84.3457 27.1713 84.1519C27.0876 83.958 26.9286 83.8045 26.7292 83.7252Z" fill="white"/>
<path id="Vector_19" d="M47.8264 112.315C47.6111 112.315 47.4046 112.399 47.2523 112.548C47.1 112.696 47.0143 112.898 47.0139 113.109V116.573C47.0139 116.783 47.0995 116.985 47.2519 117.134C47.4043 117.283 47.6109 117.366 47.8264 117.366C48.0419 117.366 48.2486 117.283 48.401 117.134C48.5533 116.985 48.6389 116.783 48.6389 116.573V113.109C48.6386 112.898 48.5528 112.696 48.4005 112.548C48.2482 112.399 48.0418 112.315 47.8264 112.315Z" fill="white"/>
<path id="Vector_20" d="M63.9734 111.928L61.9775 109.066C61.9175 108.98 61.8407 108.906 61.7515 108.849C61.6622 108.792 61.5624 108.752 61.4576 108.733C61.3528 108.713 61.2451 108.714 61.1406 108.735C61.0362 108.757 60.9371 108.798 60.8489 108.856C60.7607 108.915 60.6852 108.99 60.6267 109.077C60.5683 109.164 60.5279 109.262 60.508 109.364C60.4881 109.467 60.4891 109.572 60.5108 109.674C60.5325 109.776 60.5746 109.873 60.6347 109.959L62.6305 112.821C62.71 112.935 62.8186 113.027 62.9456 113.088C63.0725 113.148 63.2134 113.175 63.3544 113.166C63.5893 113.007 63.8227 112.844 64.0517 112.677C64.1036 112.556 64.1236 112.423 64.1099 112.293C64.0963 112.162 64.0493 112.036 63.9734 111.928Z" fill="white"/>
<path id="Vector_21" d="M72.6731 98.5916L69.3876 97.2883C69.188 97.2091 68.9644 97.2106 68.7659 97.2925C68.5674 97.3744 68.4104 97.5299 68.3293 97.725C68.2482 97.92 68.2497 98.1385 68.3335 98.3324C68.4173 98.5263 68.5764 98.6798 68.776 98.7591L72.0615 100.062C72.2611 100.141 72.4846 100.14 72.683 100.058C72.8813 99.9759 73.0383 99.8204 73.1193 99.6255C73.2004 99.4306 73.1989 99.2122 73.1153 99.0183C73.0316 98.8245 72.8726 98.671 72.6731 98.5916Z" fill="white"/>
<path id="Vector_22" d="M34.6563 108.857C34.4782 108.738 34.2593 108.694 34.0477 108.733C33.836 108.772 33.649 108.892 33.5277 109.066L31.5318 111.928C31.4559 112.037 31.409 112.162 31.3953 112.293C31.3816 112.424 31.4016 112.556 31.4536 112.677C31.6825 112.845 31.9159 113.008 32.1508 113.166C32.2918 113.175 32.4327 113.148 32.5596 113.088C32.6866 113.027 32.7952 112.935 32.8747 112.821L34.8705 109.959C34.9306 109.873 34.9727 109.776 34.9944 109.674C35.0162 109.572 35.0171 109.467 34.9972 109.365C34.9773 109.262 34.937 109.165 34.8785 109.077C34.82 108.99 34.7445 108.915 34.6563 108.857Z" fill="white"/>
<path id="Vector_23" d="M27.1753 97.7241C27.1351 97.6276 27.0759 97.5398 27.001 97.4657C26.9262 97.3915 26.8371 97.3325 26.7388 97.2921C26.6406 97.2516 26.5352 97.2304 26.4286 97.2298C26.3219 97.2291 26.2163 97.249 26.1175 97.2882L22.832 98.5916C22.6326 98.6709 22.4735 98.8244 22.3899 99.0183C22.3062 99.2122 22.3047 99.4305 22.3858 99.6255C22.4669 99.8204 22.6238 99.9759 22.8221 100.058C23.0205 100.14 23.244 100.141 23.4436 100.062L26.7291 98.759C26.9284 98.6792 27.0873 98.5255 27.1709 98.3316C27.2546 98.1376 27.2561 97.9192 27.1753 97.7241Z" fill="white"/>
<path id="clock-stick2" d="M48.8807 90.8483C48.9557 91.2822 48.8515 91.7274 48.5909 92.0864C48.3303 92.4453 47.9347 92.6886 47.4907 92.7629L33.0725 95.1591C32.8526 95.1956 32.6274 95.1895 32.4099 95.141C32.1924 95.0925 31.9868 95.0027 31.8048 94.8766C31.6228 94.7505 31.468 94.5906 31.3493 94.4061C31.2306 94.2215 31.1502 94.0159 31.1128 93.8011C31.0754 93.5862 31.0817 93.3662 31.1313 93.1537C31.1809 92.9412 31.2728 92.7403 31.4019 92.5625C31.531 92.3847 31.6946 92.2335 31.8835 92.1175C32.0724 92.0015 32.2828 91.9229 32.5028 91.8864L46.9209 89.4903C47.365 89.417 47.8208 89.5188 48.1882 89.7734C48.5556 90.0279 48.8046 90.4145 48.8807 90.8483Z" fill="#3F3D56"/>
<path id="clock-stick1" d="M64.0554 106.455C63.8482 106.659 63.5669 106.774 63.2732 106.775C62.9794 106.776 62.6972 106.663 62.4885 106.461L46.9675 91.4159C46.7592 91.2137 46.6417 90.9389 46.6406 90.6519C46.6396 90.365 46.7552 90.0894 46.9621 89.8858C47.1689 89.6821 47.4501 89.5669 47.7437 89.5657C48.0374 89.5644 48.3196 89.6771 48.5282 89.879L64.0492 104.924C64.2575 105.127 64.3751 105.401 64.3763 105.688C64.3775 105.975 64.262 106.251 64.0554 106.455Z" fill="#3F3D56"/>
<path id="Vector_24" d="M47.7526 93.1184C48.8133 93.1184 49.6731 92.2783 49.6731 91.2421C49.6731 90.2058 48.8133 89.3657 47.7526 89.3657C46.692 89.3657 45.8322 90.2058 45.8322 91.2421C45.8322 92.2783 46.692 93.1184 47.7526 93.1184Z" fill="#CCCCCC"/>
<path id="Vector_25" d="M34.5242 58.7065C31.5763 63.2346 27.0784 66.2396 21.5314 68.2138C21.4218 68.294 21.2971 68.3523 21.1644 68.3854C21.0317 68.4186 20.8937 68.4258 20.7581 68.4068C20.6226 68.3878 20.4922 68.3429 20.3744 68.2747C20.2566 68.2064 20.1537 68.1162 20.0716 68.0091C17.0585 64.0785 17.7389 58.461 21.7155 55.4576C22.6769 54.7327 23.7762 54.2016 24.9493 53.8952C26.1225 53.5888 27.3464 53.5131 28.5497 53.6726C29.7531 53.832 30.9121 54.2235 31.9594 54.8241C33.0066 55.4247 33.9214 56.2227 34.6504 57.1715L34.7338 57.2802C34.8159 57.3873 34.8756 57.5092 34.9095 57.6388C34.9434 57.7684 34.9508 57.9033 34.9313 58.0358C34.9119 58.1682 34.8659 58.2956 34.7961 58.4107C34.7262 58.5258 34.6338 58.6263 34.5242 58.7065Z" fill="#E6E6E6"/>
<path id="Vector_26" d="M60.8547 57.1715C61.5838 56.2227 62.4985 55.4247 63.5458 54.8241C64.5931 54.2235 65.752 53.832 66.9554 53.6726C68.1588 53.5131 69.3826 53.5888 70.5558 53.8952C71.729 54.2016 72.8282 54.7327 73.7896 55.4575C77.7663 58.461 78.4466 64.0785 75.4335 68.0091C75.3514 68.1162 75.2486 68.2064 75.1308 68.2747C75.013 68.3429 74.8826 68.3878 74.747 68.4068C74.6115 68.4258 74.4734 68.4186 74.3407 68.3854C74.2081 68.3523 74.0833 68.294 73.9737 68.2138C68.8243 66.2876 64.6014 62.9544 60.9809 58.7065C60.7595 58.5445 60.6131 58.3032 60.5738 58.0358C60.5345 57.7683 60.6056 57.4965 60.7714 57.2802L60.8547 57.1715Z" fill="#E6E6E6"/>
<path id="Vector_27" d="M66.662 66.7054C68.0491 66.7054 69.1735 65.6069 69.1735 64.2518C69.1735 62.8966 68.0491 61.7981 66.662 61.7981C65.275 61.7981 64.1506 62.8966 64.1506 64.2518C64.1506 65.6069 65.275 66.7054 66.662 66.7054Z" fill="#E6E6E6"/>
<path id="Vector_28" d="M47.6049 60.932C48.9919 60.932 50.1163 59.8335 50.1163 58.4783C50.1163 57.1232 48.9919 56.0247 47.6049 56.0247C46.2179 56.0247 45.0935 57.1232 45.0935 58.4783C45.0935 59.8335 46.2179 60.932 47.6049 60.932Z" fill="#E6E6E6"/>
<path id="Vector_29" d="M29.434 66.4166C30.821 66.4166 31.9454 65.3181 31.9454 63.9629C31.9454 62.6078 30.821 61.5093 29.434 61.5093C28.047 61.5093 26.9226 62.6078 26.9226 63.9629C26.9226 65.3181 28.047 66.4166 29.434 66.4166Z" fill="#E6E6E6"/>
<path id="Vector_30" d="M74.3004 139.229L74.4077 139.496H74.3004V139.229Z" fill="#2F2E41"/>
</g>
</g>
<defs>
<clipPath id="clip0_5_73">
<rect width="622" height="445" fill="white" transform="translate(-16 -59)"/>
</clipPath>
<clipPath id="clip1_5_73">
<rect width="173.124" height="120.486" fill="white" transform="matrix(0.9999 0.0141635 -0.00836259 0.999965 208.71 163.961)"/>
</clipPath>
<clipPath id="clip2_5_73">
<rect width="99.8167" height="91.2112" fill="white" transform="translate(6.53625 53.5903)"/>
</clipPath>
</defs>
</svg>
