<svg width="460" height="267" viewBox="0 0 460 267" fill="none" xmlns="http://www.w3.org/2000/svg">
<g id="undraw_coding_re_iv62 (2) 2" clip-path="url(#clip0_5_73)">
<path id="leaf-left" d="M69.5784 243.478C57.1208 254.138 53.5902 272.894 53.5902 272.894C53.5902 272.894 70.2573 274.366 82.7148 263.707C95.1724 253.047 98.703 234.291 98.703 234.291C98.703 234.291 82.0359 232.819 69.5784 243.478Z" fill="#F1F1F1"/>
<path id="leaf-right" d="M400.45 246.109C394.463 262.568 379.468 271.049 379.468 271.049C379.468 271.049 374.18 252.846 380.167 236.387C386.155 219.929 401.149 211.447 401.149 211.447C401.149 211.447 406.437 229.651 400.45 246.109Z" fill="#F1F1F1"/>
<path id="smoke-2" d="M433.182 200.904C431.858 190.669 431.509 180.299 432.139 169.978L433.182 152.896C427.435 166.021 428.734 183.296 433.182 200.904Z" fill="#CACACA"/>
<path id="smoke-1" d="M437.663 203.761C437.026 197.654 436.858 191.494 437.161 185.353L437.663 175.185C434.898 182.998 435.523 193.28 437.663 203.761Z" fill="#CACACA"/>
<path id="Vector" d="M457.581 216.336V222.051C457.579 222.505 457.421 222.94 457.141 223.261C456.861 223.582 456.483 223.763 456.087 223.766H453.598C453.532 223.765 453.467 223.78 453.407 223.809C453.346 223.837 453.291 223.879 453.245 223.933C453.199 223.986 453.162 224.049 453.137 224.118C453.112 224.188 453.1 224.262 453.1 224.337V271.202C453.098 271.656 452.94 272.091 452.66 272.412C452.38 272.733 452.002 272.914 451.606 272.917H421.235C420.839 272.916 420.459 272.736 420.179 272.414C419.899 272.093 419.741 271.657 419.741 271.202V224.337C419.741 224.186 419.688 224.041 419.595 223.934C419.502 223.827 419.375 223.766 419.243 223.766H416.256C415.86 223.765 415.48 223.585 415.2 223.263C414.92 222.942 414.763 222.506 414.762 222.051V216.336C414.762 216.111 414.8 215.888 414.875 215.679C414.95 215.471 415.06 215.282 415.199 215.123C415.338 214.964 415.503 214.837 415.684 214.751C415.865 214.665 416.06 214.621 416.256 214.621H456.087C456.483 214.623 456.862 214.804 457.142 215.125C457.422 215.446 457.58 215.882 457.581 216.336Z" fill="#F2F2F2"/>
<path id="Vector_2" d="M453.145 224.966H419.786V226.681H453.145V224.966Z" fill="#E6E6E6"/>
<path id="Vector_3" d="M453.1 250.196C441.937 255.498 430.653 255.557 419.243 250.196V238.116C430.227 233.882 442.116 233.882 453.1 238.116V250.196Z" fill="#E6E6E6"/>
<path id="Vector_4" d="M319.033 283.726H180.501C178.883 283.725 177.333 283.273 176.189 282.469C175.045 281.665 174.402 280.575 174.4 279.439V220.37C174.402 219.234 175.045 218.144 176.189 217.34C177.333 216.536 178.883 216.084 180.501 216.083H319.033C320.65 216.084 317.889 221.691 319.033 222.495C320.176 223.298 325.131 219.234 325.133 220.37V279.439C325.131 280.575 324.488 281.665 323.344 282.469C322.201 283.273 320.65 283.725 319.033 283.726Z" fill="#3F3D56"/>
<path id="Ellipse 263" d="M270.835 232.996C273.527 232.996 275.709 230.491 275.709 227.4C275.709 224.31 273.527 221.805 270.835 221.805C268.143 221.805 265.96 224.31 265.96 227.4C265.96 230.491 268.143 232.996 270.835 232.996Z" fill="white"/>
<g id="me" clip-path="url(#clip1_5_73)">
<path id="Ellipse 276" d="M264.869 153.057C271.804 153.143 277.486 146.936 277.559 139.191C277.633 131.447 272.07 125.098 265.135 125.012C258.2 124.925 252.518 131.133 252.445 138.877C252.371 146.622 257.934 152.97 264.869 153.057Z" fill="#FEB8B8"/>
<path id="Path 1461" d="M276.845 127.083C275 123.655 272.085 121.11 268.662 119.937L267.108 121.174L267.123 119.543C266.3 119.392 265.466 119.327 264.632 119.35L263.289 120.677L263.3 119.445C261.329 119.694 259.425 120.396 257.708 121.507C255.992 122.619 254.501 124.115 253.329 125.903C250.397 130.517 249.848 136.979 252.644 141.702C253.449 139.035 254.42 136.536 255.225 133.87C255.837 133.971 256.458 133.982 257.073 133.903L258.045 131.443L258.288 133.813C261.231 133.564 265.599 132.99 268.392 132.45L268.138 130.63L269.746 132.159C270.602 131.951 271.111 131.758 271.071 131.605C273.109 135.364 275.624 137.779 277.662 141.538C278.499 136.285 279.447 131.919 276.845 127.083Z" fill="#2F2E41"/>
<path id="Vector_5" d="M291.667 175.431C291.263 172.525 290.845 169.563 289.663 166.934C288.885 165.213 287.641 163.566 285.947 163.206C285.612 163.168 285.284 163.079 284.972 162.941C284.477 162.667 277.832 158.322 276.776 157.566C275.87 156.917 274.441 155.719 273.714 155.71C272.984 155.683 270.175 156.376 259.25 155.285C259.25 155.285 256.233 156.57 253.894 158.144C253.859 158.118 242.48 164.761 242.055 164.738C241.251 164.69 240.497 165.256 240.029 165.975C239.56 166.694 239.335 167.589 239.101 168.454C241.514 174.63 243.716 180.812 246.129 186.988C246.243 187.221 246.302 187.482 246.301 187.747C246.249 188.022 246.141 188.279 245.986 188.5C244.754 190.659 244.766 193.394 244.875 195.951C244.983 198.508 245.121 201.209 244.077 203.486C243.793 204.112 243.426 204.683 243.155 205.308C242.522 206.725 242.255 211.277 242.602 212.811L287.923 214.828C286.976 211.824 291.667 175.431 291.667 175.431Z" fill="#6C63FF"/>
<path id="Path 1421" d="M235.004 187.122C234.907 187.851 234.891 188.591 234.956 189.326L235.507 199.754C235.559 200.737 235.61 201.717 235.683 202.698C235.821 204.601 236.036 206.49 236.307 208.377C236.311 208.645 236.41 208.9 236.582 209.086C236.754 209.272 236.985 209.375 237.225 209.371C240.079 210.083 243.034 210.093 245.955 209.945C250.412 209.723 261.813 209.34 262.518 208.339C263.224 207.337 262.834 205.699 261.934 204.871C261.034 204.043 246.014 201.864 246.014 201.864C246.173 200.565 246.628 199.346 247.061 198.117C247.837 195.937 248.563 193.684 248.599 191.338C248.635 188.993 247.867 186.517 246.159 185.151C244.754 184.03 242.934 183.803 241.208 183.827C239.953 183.851 237.788 183.488 236.636 184.022C235.725 184.457 235.183 186.132 235.004 187.122Z" fill="#FBBEBE"/>
<path id="Path 1430" d="M238.968 168.639C238.745 168.894 238.572 169.197 238.458 169.529C236.587 174.106 235.46 179.019 235.132 184.038C235.134 184.283 235.082 184.524 234.978 184.74C234.877 184.884 234.764 185.017 234.642 185.138C234.535 185.276 234.454 185.437 234.402 185.611C234.351 185.785 234.331 185.968 234.343 186.151C234.355 186.333 234.399 186.511 234.473 186.675C234.547 186.838 234.649 186.984 234.773 187.104C234.793 187.123 234.814 187.142 234.835 187.16C235.216 186.381 236.111 186.136 236.906 186.078C240.71 185.789 244.404 187.81 248.217 187.709C247.958 186.668 247.581 185.666 247.371 184.613C246.445 179.937 248.913 174.89 247.472 170.379C247.185 169.477 246.698 168.587 245.922 168.183C245.6 168.034 245.263 167.929 244.918 167.873C243.957 167.667 242.047 166.812 241.113 167.134C240.768 167.253 240.629 167.612 240.342 167.827C239.906 168.13 239.331 168.237 238.968 168.639Z" fill="#6C63FF"/>
<path id="Path 1421_2" d="M291.606 184.709C290.465 184.147 288.293 184.455 287.039 184.399C285.314 184.332 283.49 184.514 282.064 185.6C280.331 186.922 279.516 189.379 279.507 191.724C279.499 194.07 280.183 196.341 280.917 198.54C281.326 199.78 281.758 201.01 281.892 202.312C281.892 202.312 266.835 204.115 265.919 204.921C265.004 205.726 264.582 207.354 265.269 208.373C265.956 209.392 287.671 210.677 290.537 210.037C290.777 210.047 291.01 209.95 291.185 209.768C291.361 209.586 291.464 209.334 291.473 209.067C291.78 207.187 292.031 205.304 292.205 203.404C292.297 202.426 292.366 201.447 292.436 200.465L293.185 190.053C293.264 189.321 293.262 188.58 293.179 187.848C293.019 186.854 292.509 185.166 291.606 184.709Z" fill="#FBBEBE"/>
<path id="Path 1430_2" d="M288.209 168.425C287.926 168.203 287.794 167.841 287.451 167.713C286.523 167.368 284.598 168.174 283.633 168.357C283.287 168.404 282.948 168.5 282.624 168.642C281.84 169.026 281.336 169.903 281.032 170.798C279.506 175.272 281.877 180.379 280.863 185.031C280.633 186.078 280.237 187.071 279.958 188.105C283.769 188.302 287.5 186.374 291.298 186.757C292.091 186.835 292.982 187.102 293.347 187.891C293.369 187.874 293.39 187.855 293.411 187.836C293.537 187.72 293.642 187.577 293.719 187.415C293.796 187.253 293.843 187.076 293.859 186.894C293.875 186.712 293.858 186.528 293.81 186.353C293.762 186.178 293.683 186.015 293.579 185.874C293.459 185.75 293.349 185.614 293.25 185.468C293.151 185.25 293.103 185.007 293.11 184.762C292.877 179.736 291.844 174.796 290.06 170.174C289.952 169.838 289.785 169.531 289.567 169.271C289.212 168.86 288.639 168.739 288.209 168.425Z" fill="#6C63FF"/>
<path id="Vector_6" d="M278.697 138.162L278.118 138.154C278.202 129.279 272.29 121.983 264.938 121.891C257.587 121.799 251.538 128.945 251.454 137.821L250.874 137.814C250.962 128.552 257.274 121.095 264.945 121.191C272.616 121.287 278.785 128.9 278.697 138.162Z" fill="#6C63FF"/>
</g>
<path id="Vector_7" d="M54.1105 10.9806C57.2158 10.9806 59.7332 8.93269 59.7332 6.40645C59.7332 3.8802 57.2158 1.83228 54.1105 1.83228C51.0052 1.83228 48.4879 3.8802 48.4879 6.40645C48.4879 8.93269 51.0052 10.9806 54.1105 10.9806Z" fill="#E6E6E6"/>
<path id="clock" d="M36.0372 95.646C60.1927 95.646 79.7741 78.2546 79.7741 56.8013C79.7741 35.3479 60.1927 17.9565 36.0372 17.9565C11.8821 17.9565 -7.69958 35.3479 -7.69958 56.8013C-7.69958 78.2546 11.8821 95.646 36.0372 95.646Z" fill="#6C63FF"/>
<g id="clock_2" clip-path="url(#clip2_5_73)">
<path id="Vector_8" d="M94.3537 91.0292C94.3537 91.0472 94.3497 91.065 94.3417 91.0816C94.3338 91.0982 94.3221 91.1133 94.3074 91.126C94.2926 91.1386 94.2751 91.1487 94.2558 91.1556C94.2366 91.1624 94.2159 91.1659 94.1951 91.1658H4.48461C4.44256 91.1658 4.40223 91.1514 4.37249 91.1258C4.34275 91.1002 4.32605 91.0655 4.32605 91.0292C4.32605 90.993 4.34275 90.9582 4.37249 90.9326C4.40223 90.907 4.44256 90.8926 4.48461 90.8926H94.1951C94.2159 90.8925 94.2366 90.896 94.2558 90.9029C94.2751 90.9097 94.2926 90.9198 94.3074 90.9325C94.3221 90.9452 94.3338 90.9603 94.3417 90.9769C94.3497 90.9935 94.3537 91.0113 94.3537 91.0292Z" fill="#CCCCCC"/>
<path id="Vector_9" d="M41.5003 85.2043C57.3216 85.2043 70.1473 74.1521 70.1473 60.5184C70.1473 46.8848 57.3216 35.8325 41.5003 35.8325C25.679 35.8325 12.8533 46.8848 12.8533 60.5184C12.8533 74.1521 25.679 85.2043 41.5003 85.2043Z" fill="#E6E6E6"/>
<path id="Vector_10" d="M66.15 60.5182C66.1529 63.8327 65.2544 67.1016 63.5266 70.0628C61.7988 73.024 59.2898 75.5951 56.2008 77.5699C55.9943 77.7031 55.7838 77.8328 55.5719 77.9591C51.4412 80.4334 46.5309 81.7596 41.5002 81.7596C36.4696 81.7596 31.5593 80.4334 27.4285 77.9591C27.2167 77.8328 27.0062 77.7031 26.7996 77.5699C23.7128 75.5933 21.2053 73.0219 19.4778 70.0611C17.7502 67.1003 16.8505 63.8322 16.8505 60.5182C16.8505 57.2042 17.7502 53.9362 19.4778 50.9754C21.2053 48.0146 23.7128 45.4431 26.7996 43.4666C27.0062 43.3334 27.2167 43.2036 27.4285 43.0773C31.5593 40.603 36.4696 39.2769 41.5002 39.2769C46.5309 39.2769 51.4412 40.603 55.5719 43.0773C55.7838 43.2036 55.9943 43.3334 56.2008 43.4666C59.2898 45.4414 61.7988 48.0125 63.5266 50.9737C65.2544 53.9349 66.1529 57.2038 66.15 60.5182Z" fill="white"/>
<path id="Vector_11" d="M41.5003 79.9226C53.9366 79.9226 64.0182 71.235 64.0182 60.5183C64.0182 49.8016 53.9366 41.114 41.5003 41.114C29.064 41.114 18.9824 49.8016 18.9824 60.5183C18.9824 71.235 29.064 79.9226 41.5003 79.9226Z" fill="#6C63FF"/>
<path id="Vector_12" opacity="0.2" d="M41.559 41.1682C41.2176 41.1682 40.8783 41.1759 40.5407 41.1889C46.232 41.6198 51.5203 43.8989 55.3344 47.5644C59.1485 51.2299 61.203 56.0077 61.0818 60.9298C60.9605 65.8519 58.6726 70.5503 54.6815 74.073C50.6904 77.5957 45.2945 79.6794 39.5872 79.9019C40.2371 79.9505 40.8944 79.9768 41.559 79.9768C47.5311 79.9768 53.2586 77.9324 57.4815 74.2934C61.7044 70.6544 64.0769 65.7188 64.0769 60.5725C64.0769 55.4262 61.7044 50.4906 57.4815 46.8516C53.2586 43.2126 47.5311 41.1682 41.559 41.1682Z" fill="black"/>
<path id="Vector_13" d="M41.5669 39.7363C41.3727 39.7366 41.1865 39.8032 41.0491 39.9216C40.9118 40.04 40.8344 40.2004 40.8341 40.3678V43.1235C40.8341 43.2909 40.9113 43.4516 41.0487 43.57C41.1862 43.6884 41.3726 43.755 41.5669 43.755C41.7613 43.755 41.9477 43.6884 42.0851 43.57C42.2226 43.4516 42.2998 43.2909 42.2998 43.1235V40.3678C42.2994 40.2004 42.2221 40.04 42.0847 39.9216C41.9474 39.8032 41.7612 39.7366 41.5669 39.7363Z" fill="white"/>
<path id="Vector_14" d="M56.2009 43.4667C55.9944 43.3336 55.7839 43.2038 55.572 43.0775C55.4449 43.0704 55.3178 43.0919 55.2033 43.14C55.0888 43.1882 54.9909 43.2612 54.9191 43.3519L53.119 45.6288C53.0097 45.7672 52.9686 45.9373 53.0048 46.1019C53.041 46.2664 53.1516 46.4117 53.3122 46.506C53.4728 46.6002 53.6703 46.6356 53.8612 46.6044C54.0521 46.5732 54.2208 46.4779 54.3302 46.3395L56.1303 44.0626C56.1988 43.9763 56.2411 43.8765 56.2535 43.7724C56.2658 43.6684 56.2477 43.5633 56.2009 43.4667Z" fill="white"/>
<path id="Vector_15" d="M64.3793 53.8486C64.3431 53.7719 64.2897 53.702 64.2221 53.643C64.1546 53.584 64.0742 53.5371 63.9856 53.5049C63.897 53.4727 63.8019 53.4559 63.7058 53.4553C63.6096 53.4548 63.5143 53.4706 63.4252 53.5019L60.4619 54.5387C60.2821 54.6018 60.1386 54.7239 60.0632 54.8781C59.9877 55.0323 59.9864 55.2061 60.0595 55.3611C60.1326 55.5162 60.2742 55.6399 60.4531 55.7051C60.632 55.7702 60.8336 55.7715 61.0136 55.7087L63.9769 54.6719C64.1567 54.6084 64.2999 54.4861 64.3754 54.3319C64.4508 54.1776 64.4522 54.0038 64.3793 53.8486Z" fill="white"/>
<path id="Vector_16" d="M29.8816 45.6288L28.0815 43.3519C28.0098 43.2612 27.9118 43.1882 27.7973 43.14C27.6828 43.0919 27.5557 43.0704 27.4286 43.0775C27.2168 43.2038 27.0062 43.3336 26.7997 43.4667C26.7529 43.5633 26.7348 43.6684 26.7472 43.7724C26.7595 43.8765 26.8018 43.9763 26.8703 44.0626L28.6704 46.3395C28.7798 46.4779 28.9485 46.5732 29.1394 46.6044C29.3303 46.6356 29.5278 46.6002 29.6884 46.506C29.849 46.4117 29.9596 46.2664 29.9958 46.1019C30.0321 45.9373 29.991 45.7672 29.8816 45.6288Z" fill="white"/>
<path id="Vector_17" d="M22.5386 54.5385L19.5753 53.5017C19.3953 53.4387 19.1936 53.4399 19.0146 53.5051C18.8356 53.5702 18.6939 53.6939 18.6208 53.8491C18.5476 54.0042 18.549 54.178 18.6246 54.3323C18.7001 54.4866 18.8437 54.6087 19.0237 54.6717L21.987 55.7085C22.167 55.7714 22.3686 55.7701 22.5475 55.7049C22.7264 55.6397 22.868 55.516 22.9411 55.361C23.0142 55.2059 23.0129 55.0322 22.9374 54.878C22.8619 54.7238 22.7185 54.6017 22.5386 54.5385Z" fill="white"/>
<path id="Vector_18" d="M41.5669 77.2817C41.3727 77.282 41.1865 77.3487 41.0491 77.467C40.9118 77.5854 40.8344 77.7458 40.8341 77.9132V80.6689C40.8341 80.8364 40.9113 80.997 41.0487 81.1154C41.1862 81.2338 41.3726 81.3004 41.5669 81.3004C41.7613 81.3004 41.9477 81.2338 42.0851 81.1154C42.2226 80.997 42.2998 80.8364 42.2998 80.6689V77.9132C42.2994 77.7458 42.2221 77.5854 42.0847 77.467C41.9474 77.3487 41.7612 77.282 41.5669 77.2817Z" fill="white"/>
<path id="Vector_19" d="M56.1302 76.974L54.3301 74.6971C54.2759 74.6286 54.2066 74.5699 54.1262 74.5245C54.0457 74.479 53.9556 74.4477 53.8611 74.4322C53.7666 74.4168 53.6694 74.4175 53.5752 74.4344C53.481 74.4513 53.3916 74.484 53.3121 74.5306C53.2326 74.5773 53.1645 74.637 53.1117 74.7064C53.059 74.7757 53.0226 74.8533 53.0047 74.9348C52.9867 75.0162 52.9876 75.0999 53.0072 75.1811C53.0268 75.2623 53.0647 75.3393 53.1189 75.4079L54.919 77.6847C54.9907 77.7754 55.0887 77.8485 55.2032 77.8966C55.3177 77.9447 55.4448 77.9663 55.5719 77.9591C55.7837 77.8328 55.9943 77.7031 56.2008 77.5699C56.2476 77.4734 56.2657 77.3683 56.2533 77.2642C56.241 77.1601 56.1987 77.0604 56.1302 76.974Z" fill="white"/>
<path id="Vector_20" d="M63.9769 66.3649L61.0136 65.3281C60.8335 65.2651 60.6318 65.2663 60.4528 65.3315C60.2738 65.3966 60.1322 65.5204 60.059 65.6755C59.9859 65.8306 59.9872 66.0044 60.0628 66.1587C60.1384 66.313 60.2819 66.4351 60.4619 66.4981L63.4252 67.5349C63.6053 67.5978 63.8069 67.5965 63.9858 67.5313C64.1646 67.4662 64.3062 67.3424 64.3793 67.1874C64.4524 67.0323 64.4511 66.8586 64.3756 66.7044C64.3002 66.5502 64.1567 66.4281 63.9769 66.3649Z" fill="white"/>
<path id="Vector_21" d="M29.6884 74.5308C29.5278 74.4366 29.3303 74.4012 29.1394 74.4325C28.9485 74.4637 28.7798 74.559 28.6704 74.6973L26.8703 76.9742C26.8018 77.0605 26.7595 77.1603 26.7472 77.2644C26.7348 77.3685 26.7529 77.4735 26.7997 77.5701C27.0062 77.7033 27.2168 77.833 27.4286 77.9593C27.5557 77.9664 27.6828 77.9449 27.7973 77.8968C27.9118 77.8486 28.0098 77.7756 28.0815 77.6849L29.8816 75.408C29.9358 75.3395 29.9737 75.2625 29.9933 75.1813C30.0129 75.1001 30.0138 75.0164 29.9959 74.935C29.9779 74.8535 29.9415 74.7759 29.8888 74.7065C29.836 74.6372 29.7679 74.5775 29.6884 74.5308Z" fill="white"/>
<path id="Vector_22" d="M22.941 65.6748C22.9048 65.598 22.8514 65.5282 22.7839 65.4692C22.7164 65.4102 22.636 65.3633 22.5474 65.3311C22.4588 65.2989 22.3637 65.282 22.2676 65.2815C22.1714 65.281 22.0761 65.2968 21.987 65.328L19.0237 66.3648C18.8438 66.428 18.7004 66.5501 18.6249 66.7043C18.5495 66.8585 18.5482 67.0322 18.6213 67.1873C18.6944 67.3424 18.8359 67.4661 19.0148 67.5312C19.1937 67.5964 19.3953 67.5977 19.5753 67.5348L22.5386 66.498C22.7184 66.4346 22.8617 66.3123 22.9371 66.158C23.0125 66.0037 23.0139 65.83 22.941 65.6748Z" fill="white"/>
<path id="clock-stick2" d="M42.5177 60.205C42.5854 60.5502 42.4914 60.9044 42.2564 61.1899C42.0214 61.4755 41.6645 61.669 41.2641 61.7281L28.2599 63.6342C28.0616 63.6633 27.8585 63.6584 27.6623 63.6199C27.4661 63.5813 27.2807 63.5098 27.1165 63.4095C26.9524 63.3092 26.8128 63.182 26.7057 63.0352C26.5986 62.8884 26.5261 62.7249 26.4924 62.5539C26.4587 62.383 26.4643 62.208 26.5091 62.0389C26.5538 61.8699 26.6367 61.7101 26.7532 61.5686C26.8696 61.4272 27.0172 61.3069 27.1875 61.2146C27.3579 61.1223 27.5477 61.0599 27.746 61.0308L40.7502 59.1247C41.1508 59.0664 41.5618 59.1474 41.8932 59.3499C42.2246 59.5524 42.4492 59.8599 42.5177 60.205Z" fill="#3F3D56"/>
<path id="clock-stick1" d="M56.2043 72.6204C56.0175 72.7823 55.7638 72.8738 55.4988 72.8747C55.2339 72.8756 54.9794 72.7859 54.7911 72.6252L40.7923 60.6567C40.6044 60.4958 40.4984 60.2772 40.4974 60.0489C40.4965 59.8207 40.6008 59.6015 40.7874 59.4394C40.9739 59.2774 41.2275 59.1858 41.4924 59.1848C41.7572 59.1838 42.0117 59.2735 42.1999 59.4341L56.1987 71.4026C56.3866 71.5636 56.4927 71.7822 56.4938 72.0105C56.4948 72.2388 56.3907 72.4582 56.2043 72.6204Z" fill="#3F3D56"/>
<path id="Vector_23" d="M41.5002 62.0109C42.4569 62.0109 43.2324 61.3426 43.2324 60.5183C43.2324 59.6939 42.4569 59.0256 41.5002 59.0256C40.5436 59.0256 39.7681 59.6939 39.7681 60.5183C39.7681 61.3426 40.5436 62.0109 41.5002 62.0109Z" fill="#CCCCCC"/>
<path id="Vector_24" d="M29.5692 34.636C26.9104 38.2382 22.8536 40.6287 17.8506 42.1992C17.7517 42.263 17.6393 42.3094 17.5196 42.3357C17.3999 42.3621 17.2754 42.3678 17.1531 42.3527C17.0309 42.3376 16.9133 42.3019 16.807 42.2476C16.7008 42.1933 16.608 42.1215 16.534 42.0363C13.8164 38.9095 14.43 34.4407 18.0167 32.0515C18.8838 31.4749 19.8752 31.0524 20.9333 30.8087C21.9915 30.5649 23.0953 30.5047 24.1806 30.6315C25.266 30.7584 26.3113 31.0698 27.2559 31.5476C28.2004 32.0254 29.0255 32.6602 29.683 33.415L29.7582 33.5015C29.8322 33.5867 29.8861 33.6836 29.9167 33.7867C29.9472 33.8898 29.9539 33.9971 29.9364 34.1025C29.9188 34.2078 29.8774 34.3092 29.8144 34.4007C29.7514 34.4923 29.6681 34.5722 29.5692 34.636Z" fill="#E6E6E6"/>
<path id="Vector_25" d="M53.3175 33.415C53.975 32.6602 54.8 32.0254 55.7446 31.5476C56.6892 31.0698 57.7345 30.7584 58.8199 30.6315C59.9052 30.5047 61.009 30.5649 62.0672 30.8087C63.1253 31.0524 64.1167 31.4749 64.9838 32.0515C68.5705 34.4407 69.1841 38.9095 66.4665 42.0363C66.3925 42.1215 66.2997 42.1933 66.1935 42.2476C66.0872 42.3019 65.9696 42.3376 65.8474 42.3527C65.7251 42.3678 65.6006 42.3621 65.4809 42.3357C65.3612 42.3094 65.2488 42.263 65.1499 42.1992C60.5054 40.6669 56.6967 38.0152 53.4313 34.636C53.2316 34.5072 53.0996 34.3152 53.0641 34.1025C53.0287 33.8897 53.0928 33.6735 53.2423 33.5015L53.3175 33.415Z" fill="#E6E6E6"/>
<path id="Vector_26" d="M58.5553 40.9993C59.8063 40.9993 60.8204 40.1254 60.8204 39.0474C60.8204 37.9694 59.8063 37.0955 58.5553 37.0955C57.3043 37.0955 56.2902 37.9694 56.2902 39.0474C56.2902 40.1254 57.3043 40.9993 58.5553 40.9993Z" fill="#E6E6E6"/>
<path id="Vector_27" d="M41.367 36.4065C42.618 36.4065 43.6322 35.5326 43.6322 34.4546C43.6322 33.3766 42.618 32.5027 41.367 32.5027C40.1161 32.5027 39.1019 33.3766 39.1019 34.4546C39.1019 35.5326 40.1161 36.4065 41.367 36.4065Z" fill="#E6E6E6"/>
<path id="Vector_28" d="M24.9782 40.7695C26.2292 40.7695 27.2434 39.8956 27.2434 38.8176C27.2434 37.7396 26.2292 36.8657 24.9782 36.8657C23.7273 36.8657 22.7131 37.7396 22.7131 38.8176C22.7131 39.8956 23.7273 40.7695 24.9782 40.7695Z" fill="#E6E6E6"/>
<path id="Vector_29" d="M65.4446 98.6924L65.5415 98.9047H65.4446V98.6924Z" fill="#2F2E41"/>
</g>
</g>
<defs>
<clipPath id="clip0_5_73">
<rect width="561" height="354" fill="white" transform="translate(-16 -59)"/>
</clipPath>
<clipPath id="clip1_5_73">
<rect width="156.142" height="95.8483" fill="white" transform="matrix(0.999922 0.0124925 -0.00948126 0.999955 186.673 118.366)"/>
</clipPath>
<clipPath id="clip2_5_73">
<rect width="90.0276" height="72.559" fill="white" transform="translate(4.32605 30.5662)"/>
</clipPath>
</defs>
</svg>
