<svg width="398" height="190" viewBox="0 0 398 190" fill="none" xmlns="http://www.w3.org/2000/svg">
<g id="undraw_coding_re_iv62 (2) 2" clip-path="url(#clip0_5_73)">
<path id="leaf-left" d="M47.1541 153.76C37.9608 161.258 35.3553 174.451 35.3553 174.451C35.3553 174.451 47.6551 175.487 56.8484 167.989C66.0416 160.491 68.6471 147.298 68.6471 147.298C68.6471 147.298 56.3474 146.262 47.1541 153.76Z" fill="#F1F1F1"/>
<path id="leaf-right" d="M291.327 155.611C286.908 167.187 275.843 173.153 275.843 173.153C275.843 173.153 271.94 160.349 276.359 148.772C280.777 137.195 291.843 131.23 291.843 131.23C291.843 131.23 295.745 144.034 291.327 155.611Z" fill="#F1F1F1"/>
<path id="smoke-2" d="M315.482 123.814C314.505 116.615 314.247 109.321 314.712 102.061L315.482 90.0452C311.241 99.2774 312.199 111.429 315.482 123.814Z" fill="#CACACA"/>
<path id="smoke-1" d="M318.789 125.823C318.318 121.528 318.194 117.195 318.418 112.875L318.789 105.723C316.748 111.219 317.209 118.451 318.789 125.823Z" fill="#CACACA"/>
<path id="Vector" d="M333.487 134.668V138.688C333.486 139.008 333.369 139.314 333.163 139.539C332.957 139.765 332.677 139.893 332.385 139.894H330.548C330.5 139.894 330.452 139.905 330.407 139.925C330.363 139.945 330.322 139.974 330.288 140.012C330.254 140.049 330.227 140.094 330.208 140.142C330.19 140.191 330.18 140.244 330.181 140.296V173.261C330.179 173.58 330.062 173.886 329.856 174.112C329.65 174.338 329.37 174.465 329.078 174.467H306.665C306.373 174.467 306.093 174.339 305.886 174.113C305.679 173.887 305.563 173.581 305.563 173.261V140.296C305.563 140.19 305.524 140.088 305.455 140.013C305.386 139.937 305.293 139.895 305.196 139.894H302.991C302.699 139.894 302.418 139.767 302.212 139.541C302.005 139.315 301.889 139.008 301.889 138.688V134.668C301.888 134.51 301.917 134.353 301.972 134.207C302.027 134.06 302.109 133.927 302.211 133.815C302.313 133.703 302.435 133.614 302.569 133.554C302.703 133.493 302.846 133.462 302.991 133.462H332.385C332.677 133.463 332.957 133.591 333.164 133.817C333.37 134.043 333.487 134.349 333.487 134.668Z" fill="#F2F2F2"/>
<path id="Vector_2" d="M330.214 140.739H305.596V141.945H330.214V140.739Z" fill="#E6E6E6"/>
<path id="Vector_3" d="M330.181 158.485C321.943 162.215 313.616 162.256 305.196 158.485V149.989C313.301 147.01 322.075 147.01 330.181 149.989V158.485Z" fill="#E6E6E6"/>
<path id="Vector_4" d="M183.347 199.87C188.31 199.87 192.334 195.468 192.334 190.038C192.334 184.607 188.31 180.205 183.347 180.205C178.383 180.205 174.36 184.607 174.36 190.038C174.36 195.468 178.383 199.87 183.347 199.87Z" fill="#FBBEBE"/>
<path id="Vector_5" d="M231.243 182.07H129.011C127.818 182.069 126.673 181.751 125.829 181.186C124.985 180.62 124.51 179.854 124.509 179.054V137.506C124.51 136.707 124.985 135.94 125.829 135.375C126.673 134.809 127.818 134.491 129.011 134.49H231.243C232.437 134.491 230.399 138.435 231.243 139C232.087 139.566 235.744 136.707 235.745 137.506V179.054C235.744 179.854 235.269 180.62 234.425 181.186C233.581 181.751 232.437 182.069 231.243 182.07Z" fill="#3F3D56"/>
<path id="Ellipse 263" d="M195.675 146.387C197.662 146.387 199.272 144.625 199.272 142.451C199.272 140.277 197.662 138.515 195.675 138.515C193.688 138.515 192.078 140.277 192.078 142.451C192.078 144.625 193.688 146.387 195.675 146.387Z" fill="white"/>
<path id="Vector_6" d="M398 172.845H-16V186.764H8.48763V190H373.522V186.764H398V172.845Z" fill="#F1F1F1"/>
<g id="me" clip-path="url(#clip1_5_73)">
<path id="Ellipse 276" d="M191.272 90.1586C196.39 90.2195 200.583 85.8529 200.637 80.4056C200.691 74.9582 196.587 70.4928 191.469 70.4319C186.351 70.3709 182.158 74.7375 182.104 80.1849C182.05 85.6322 186.155 90.0976 191.272 90.1586Z" fill="#FEB8B8"/>
<path id="Path 1461" d="M200.11 71.8891C198.749 69.478 196.598 67.6877 194.071 66.8628L192.925 67.7329L192.936 66.5855C192.328 66.4791 191.713 66.4336 191.097 66.4495L190.106 67.3831L190.115 66.5164C188.66 66.6913 187.255 67.1852 185.988 67.967C184.722 68.7488 183.621 69.8016 182.756 71.0589C180.592 74.3041 180.187 78.85 182.251 82.1718C182.845 80.2961 183.561 78.5381 184.155 76.6627C184.607 76.7337 185.065 76.7415 185.519 76.6859L186.236 74.9553L186.415 76.623C188.588 76.4477 191.811 76.0441 193.872 75.6638L193.685 74.3838L194.871 75.4596C195.503 75.3127 195.879 75.1771 195.849 75.0696C197.353 77.7135 199.209 79.4127 200.713 82.0565C201.331 78.3612 202.03 75.2908 200.11 71.8891Z" fill="#2F2E41"/>
<path id="Vector_7" d="M211.048 105.897C210.75 103.852 210.442 101.769 209.569 99.92C208.996 98.7089 208.078 97.5505 206.827 97.2975C206.58 97.2712 206.338 97.2085 206.108 97.1113C205.743 96.9187 200.838 93.862 200.059 93.3305C199.39 92.8743 198.336 92.0316 197.8 92.0252C197.261 92.0062 195.188 92.4937 187.125 91.7262C187.125 91.7262 184.899 92.6299 183.173 93.7372C183.147 93.7186 174.75 98.3915 174.437 98.3752C173.843 98.3415 173.287 98.7398 172.941 99.2455C172.595 99.7512 172.429 100.38 172.256 100.989C174.037 105.333 175.662 109.681 177.443 114.026C177.527 114.189 177.57 114.373 177.57 114.56C177.531 114.753 177.452 114.934 177.337 115.089C176.428 116.608 176.437 118.532 176.517 120.33C176.597 122.129 176.699 124.028 175.928 125.63C175.719 126.07 175.448 126.472 175.248 126.912C174.781 127.908 174.584 131.11 174.84 132.189L208.285 133.608C207.587 131.495 211.048 105.897 211.048 105.897Z" fill="#6C63FF"/>
<path id="Path 1421" d="M169.233 114.119C169.161 114.632 169.149 115.153 169.198 115.67L169.604 123.005C169.643 123.696 169.68 124.386 169.734 125.076C169.836 126.414 169.994 127.743 170.195 129.07C170.198 129.259 170.271 129.438 170.397 129.569C170.524 129.7 170.695 129.772 170.872 129.769C172.978 130.27 175.159 130.277 177.314 130.173C180.603 130.017 189.017 129.748 189.538 129.043C190.058 128.339 189.771 127.186 189.106 126.604C188.442 126.021 177.358 124.489 177.358 124.489C177.476 123.576 177.811 122.718 178.13 121.853C178.703 120.32 179.239 118.735 179.266 117.085C179.292 115.435 178.725 113.694 177.465 112.733C176.428 111.945 175.085 111.785 173.812 111.802C172.885 111.819 171.287 111.564 170.438 111.939C169.765 112.245 169.365 113.423 169.233 114.119Z" fill="#FBBEBE"/>
<path id="Path 1430" d="M172.158 101.119C171.994 101.298 171.866 101.511 171.782 101.745C170.401 104.964 169.57 108.42 169.327 111.95C169.329 112.123 169.29 112.293 169.214 112.445C169.139 112.545 169.056 112.639 168.966 112.724C168.887 112.821 168.827 112.935 168.789 113.057C168.751 113.179 168.736 113.308 168.745 113.437C168.754 113.565 168.786 113.69 168.841 113.805C168.895 113.92 168.97 114.023 169.062 114.107C169.077 114.121 169.093 114.134 169.108 114.147C169.389 113.599 170.05 113.426 170.636 113.385C173.443 113.182 176.169 114.604 178.984 114.533C178.792 113.8 178.514 113.095 178.359 112.355C177.676 109.066 179.497 105.516 178.434 102.343C178.222 101.708 177.862 101.082 177.29 100.798C177.052 100.693 176.804 100.62 176.549 100.58C175.84 100.435 174.43 99.834 173.741 100.06C173.486 100.144 173.384 100.397 173.172 100.548C172.85 100.761 172.426 100.836 172.158 101.119Z" fill="#6C63FF"/>
<path id="Path 1421_2" d="M211.003 112.422C210.161 112.027 208.559 112.244 207.633 112.205C206.36 112.158 205.014 112.285 203.962 113.049C202.683 113.979 202.081 115.707 202.075 117.357C202.068 119.007 202.573 120.604 203.115 122.151C203.417 123.023 203.735 123.888 203.835 124.804C203.835 124.804 192.723 126.073 192.047 126.639C191.372 127.206 191.061 128.351 191.568 129.068C192.074 129.784 208.099 130.688 210.215 130.238C210.391 130.245 210.563 130.177 210.693 130.049C210.822 129.921 210.899 129.743 210.905 129.555C211.132 128.233 211.317 126.908 211.445 125.572C211.513 124.884 211.564 124.196 211.616 123.505L212.169 116.181C212.227 115.666 212.226 115.145 212.164 114.631C212.046 113.932 211.67 112.744 211.003 112.422Z" fill="#FBBEBE"/>
<path id="Path 1430_2" d="M208.496 100.969C208.288 100.813 208.19 100.558 207.937 100.467C207.252 100.225 205.831 100.792 205.119 100.92C204.864 100.954 204.614 101.021 204.375 101.121C203.796 101.391 203.425 102.008 203.2 102.638C202.074 105.784 203.824 109.377 203.075 112.649C202.906 113.386 202.614 114.084 202.408 114.811C205.22 114.95 207.974 113.593 210.776 113.863C211.361 113.918 212.019 114.106 212.288 114.661C212.304 114.648 212.32 114.635 212.335 114.622C212.429 114.54 212.506 114.439 212.563 114.326C212.619 114.212 212.654 114.088 212.666 113.959C212.677 113.831 212.665 113.702 212.63 113.579C212.594 113.456 212.536 113.341 212.459 113.242C212.371 113.155 212.29 113.059 212.217 112.956C212.144 112.803 212.108 112.632 212.113 112.46C211.941 108.925 211.179 105.45 209.862 102.198C209.783 101.963 209.659 101.747 209.498 101.564C209.237 101.274 208.814 101.189 208.496 100.969Z" fill="#6C63FF"/>
<path id="Vector_8" d="M201.477 79.6814L201.049 79.6763C201.111 73.4331 196.749 68.3012 191.324 68.2366C185.899 68.172 181.434 73.1988 181.372 79.442L180.945 79.4369C181.009 72.9222 185.668 67.6769 191.328 67.7443C196.989 67.8117 201.542 73.1667 201.477 79.6814Z" fill="#6C63FF"/>
</g>
<path id="clock" d="M22.4019 49.7763C40.2278 49.7763 54.6782 37.5434 54.6782 22.4534C54.6782 7.36328 40.2278 -4.86963 22.4019 -4.86963C4.57611 -4.86963 -9.87451 7.36328 -9.87451 22.4534C-9.87451 37.5434 4.57611 49.7763 22.4019 49.7763Z" fill="#6C63FF"/>
<g id="clock_2" clip-path="url(#clip2_5_73)">
<path id="Vector_9" d="M65.4375 46.5292C65.4375 46.5418 65.4345 46.5544 65.4287 46.566C65.4228 46.5777 65.4142 46.5883 65.4033 46.5973C65.3924 46.6062 65.3795 46.6133 65.3653 46.6181C65.3511 46.6229 65.3359 46.6254 65.3205 46.6253H-0.882989C-0.914022 46.6253 -0.943785 46.6152 -0.965729 46.5972C-0.987672 46.5791 -1 46.5547 -1 46.5292C-1 46.5037 -0.987672 46.4793 -0.965729 46.4613C-0.943785 46.4432 -0.914022 46.4331 -0.882989 46.4331H65.3205C65.3359 46.4331 65.3511 46.4355 65.3653 46.4403C65.3795 46.4452 65.3924 46.4522 65.4033 46.4612C65.4142 46.4701 65.4228 46.4807 65.4287 46.4924C65.4345 46.5041 65.4375 46.5166 65.4375 46.5292Z" fill="#CCCCCC"/>
<path id="Vector_10" d="M26.4334 42.4317C38.1091 42.4317 47.574 34.6577 47.574 25.0679C47.574 15.4781 38.1091 7.7041 26.4334 7.7041C14.7578 7.7041 5.29285 15.4781 5.29285 25.0679C5.29285 34.6577 14.7578 42.4317 26.4334 42.4317Z" fill="#E6E6E6"/>
<path id="Vector_11" d="M44.6241 25.0682C44.6263 27.3995 43.9632 29.6988 42.6882 31.7817C41.4131 33.8646 39.5616 35.6731 37.282 37.0621C37.1296 37.1558 36.9742 37.2471 36.8179 37.3359C33.7695 39.0763 30.1459 40.0091 26.4334 40.0091C22.7209 40.0091 19.0973 39.0763 16.049 37.3359C15.8926 37.2471 15.7373 37.1558 15.5848 37.0621C13.3068 35.6718 11.4564 33.8631 10.1815 31.7805C8.90665 29.6979 8.24268 27.3992 8.24268 25.0682C8.24268 22.7371 8.90665 20.4384 10.1815 18.3558C11.4564 16.2732 13.3068 14.4645 15.5848 13.0742C15.7373 12.9805 15.8926 12.8893 16.049 12.8004C19.0973 11.06 22.7209 10.1272 26.4334 10.1272C30.1459 10.1272 33.7695 11.06 36.8179 12.8004C36.9742 12.8893 37.1296 12.9805 37.282 13.0742C39.5616 14.4633 41.4131 16.2717 42.6882 18.3546C43.9632 20.4375 44.6263 22.7368 44.6241 25.0682Z" fill="white"/>
<path id="Vector_12" d="M26.4334 38.7167C35.611 38.7167 43.0509 32.606 43.0509 25.068C43.0509 17.53 35.611 11.4192 26.4334 11.4192C17.2558 11.4192 9.81592 17.53 9.81592 25.068C9.81592 32.606 17.2558 38.7167 26.4334 38.7167Z" fill="#6C63FF"/>
<path id="Vector_13" opacity="0.2" d="M26.4767 11.4575C26.2248 11.4575 25.9745 11.4629 25.7253 11.472C29.9253 11.7752 33.8279 13.3783 36.6426 15.9565C39.4572 18.5348 40.9734 21.8955 40.8839 25.3576C40.7945 28.8198 39.106 32.1246 36.1607 34.6024C33.2154 37.0803 29.2335 38.5459 25.0216 38.7024C25.5012 38.7366 25.9863 38.7551 26.4767 38.7551C30.884 38.7551 35.1107 37.3171 38.2271 34.7574C41.3435 32.1978 43.0942 28.7262 43.0942 25.1063C43.0942 21.4864 41.3435 18.0148 38.2271 15.4552C35.1107 12.8955 30.884 11.4575 26.4767 11.4575Z" fill="black"/>
<path id="Vector_14" d="M26.4826 10.4502C26.3392 10.4504 26.2018 10.4973 26.1004 10.5805C25.9991 10.6638 25.942 10.7766 25.9418 10.8944V12.8327C25.9418 12.9505 25.9987 13.0635 26.1002 13.1468C26.2016 13.2301 26.3391 13.2769 26.4826 13.2769C26.626 13.2769 26.7636 13.2301 26.865 13.1468C26.9664 13.0635 27.0234 12.9505 27.0234 12.8327V10.8944C27.0231 10.7766 26.9661 10.6638 26.8647 10.5805C26.7633 10.4973 26.6259 10.4504 26.4826 10.4502Z" fill="white"/>
<path id="Vector_15" d="M37.2819 13.074C37.1295 12.9804 36.9742 12.8891 36.8178 12.8003C36.724 12.7952 36.6302 12.8104 36.5457 12.8442C36.4612 12.8781 36.389 12.9295 36.336 12.9933L35.0076 14.5948C34.9269 14.6921 34.8966 14.8118 34.9233 14.9276C34.95 15.0433 35.0317 15.1455 35.1502 15.2118C35.2687 15.2781 35.4144 15.303 35.5553 15.281C35.6962 15.2591 35.8207 15.1921 35.9014 15.0947L37.2298 13.4932C37.2804 13.4324 37.3116 13.3623 37.3207 13.2891C37.3298 13.2158 37.3165 13.1419 37.2819 13.074Z" fill="white"/>
<path id="Vector_16" d="M43.3173 20.3765C43.2906 20.3225 43.2512 20.2734 43.2014 20.2319C43.1515 20.1904 43.0922 20.1574 43.0268 20.1347C42.9615 20.1121 42.8913 20.1002 42.8203 20.0999C42.7494 20.0995 42.679 20.1106 42.6133 20.1326L40.4265 20.8619C40.2937 20.9063 40.1879 20.9922 40.1322 21.1006C40.0765 21.2091 40.0755 21.3313 40.1295 21.4404C40.1834 21.5494 40.2879 21.6365 40.4199 21.6823C40.5519 21.7281 40.7007 21.729 40.8336 21.6848L43.0204 20.9556C43.1531 20.9109 43.2588 20.8249 43.3144 20.7164C43.3701 20.6079 43.3711 20.4856 43.3173 20.3765Z" fill="white"/>
<path id="Vector_17" d="M17.8591 14.5948L16.5307 12.9933C16.4778 12.9295 16.4055 12.8781 16.321 12.8442C16.2365 12.8104 16.1427 12.7952 16.0489 12.8003C15.8925 12.8891 15.7372 12.9804 15.5848 13.074C15.5502 13.1419 15.5369 13.2158 15.546 13.2891C15.5551 13.3623 15.5863 13.4324 15.6369 13.4932L16.9653 15.0947C17.046 15.1921 17.1705 15.2591 17.3114 15.281C17.4523 15.303 17.598 15.2781 17.7165 15.2118C17.8351 15.1455 17.9167 15.0433 17.9434 14.9276C17.9701 14.8118 17.9398 14.6921 17.8591 14.5948Z" fill="white"/>
<path id="Vector_18" d="M12.4403 20.862L10.2535 20.1327C10.1206 20.0884 9.97176 20.0893 9.83966 20.1351C9.70756 20.1809 9.60302 20.2679 9.54905 20.3771C9.49507 20.4862 9.49607 20.6084 9.55184 20.717C9.6076 20.8255 9.71355 20.9113 9.8464 20.9557L12.0332 21.685C12.1661 21.7292 12.3148 21.7283 12.4469 21.6824C12.5789 21.6366 12.6833 21.5496 12.7373 21.4405C12.7912 21.3314 12.7903 21.2092 12.7346 21.1008C12.6789 20.9923 12.573 20.9064 12.4403 20.862Z" fill="white"/>
<path id="Vector_19" d="M26.4826 36.8594C26.3392 36.8596 26.2018 36.9064 26.1004 36.9897C25.9991 37.073 25.942 37.1858 25.9418 37.3036V39.2419C25.9418 39.3597 25.9987 39.4726 26.1002 39.5559C26.2016 39.6392 26.3391 39.686 26.4826 39.686C26.626 39.686 26.7636 39.6392 26.865 39.5559C26.9664 39.4726 27.0234 39.3597 27.0234 39.2419V37.3036C27.0231 37.1858 26.9661 37.073 26.8647 36.9897C26.7633 36.9064 26.6259 36.8596 26.4826 36.8594Z" fill="white"/>
<path id="Vector_20" d="M37.2298 36.6428L35.9014 35.0413C35.8614 34.9931 35.8103 34.9518 35.7509 34.9199C35.6915 34.8879 35.6251 34.8658 35.5553 34.855C35.4856 34.8441 35.4139 34.8446 35.3444 34.8565C35.2749 34.8684 35.2089 34.8914 35.1502 34.9242C35.0915 34.957 35.0412 34.999 35.0023 35.0478C34.9634 35.0966 34.9365 35.1512 34.9233 35.2085C34.9101 35.2657 34.9107 35.3246 34.9252 35.3817C34.9396 35.4388 34.9676 35.493 35.0076 35.5412L36.336 37.1427C36.3889 37.2065 36.4612 37.2579 36.5457 37.2918C36.6302 37.3256 36.724 37.3408 36.8178 37.3357C36.9742 37.2469 37.1295 37.1556 37.2819 37.062C37.3165 36.9941 37.3298 36.9202 37.3207 36.8469C37.3116 36.7737 37.2804 36.7036 37.2298 36.6428Z" fill="white"/>
<path id="Vector_21" d="M43.0204 29.1804L40.8336 28.4511C40.7007 28.4068 40.5518 28.4076 40.4197 28.4534C40.2876 28.4993 40.1831 28.5863 40.1291 28.6954C40.0751 28.8045 40.0762 28.9268 40.1319 29.0353C40.1877 29.1438 40.2936 29.2297 40.4265 29.2741L42.6133 30.0033C42.7461 30.0475 42.8949 30.0466 43.0269 30.0008C43.1589 29.955 43.2634 29.8679 43.3174 29.7589C43.3713 29.6498 43.3703 29.5276 43.3146 29.4191C43.259 29.3107 43.1531 29.2248 43.0204 29.1804Z" fill="white"/>
<path id="Vector_22" d="M17.7165 34.9242C17.598 34.8579 17.4523 34.833 17.3114 34.855C17.1705 34.8769 17.046 34.9439 16.9653 35.0413L15.6369 36.6428C15.5863 36.7035 15.5551 36.7737 15.546 36.8469C15.5369 36.9201 15.5502 36.994 15.5848 37.0619C15.7372 37.1556 15.8925 37.2469 16.0489 37.3357C16.1427 37.3407 16.2365 37.3256 16.321 37.2917C16.4055 37.2579 16.4778 37.2065 16.5307 37.1427L17.8591 35.5412C17.8991 35.493 17.9271 35.4388 17.9416 35.3817C17.956 35.3246 17.9567 35.2657 17.9434 35.2084C17.9302 35.1511 17.9033 35.0965 17.8644 35.0477C17.8255 34.999 17.7752 34.957 17.7165 34.9242Z" fill="white"/>
<path id="Vector_23" d="M12.7373 28.6951C12.7105 28.6411 12.6711 28.592 12.6213 28.5505C12.5715 28.509 12.5121 28.476 12.4468 28.4533C12.3814 28.4307 12.3112 28.4188 12.2403 28.4185C12.1693 28.4181 12.0989 28.4292 12.0332 28.4512L9.8464 29.1805C9.71366 29.2249 9.60781 29.3108 9.55213 29.4192C9.49644 29.5277 9.49546 29.6499 9.54941 29.759C9.60336 29.8681 9.70782 29.9551 9.83984 30.0009C9.97186 30.0467 10.1206 30.0477 10.2535 30.0034L12.4403 29.2742C12.573 29.2295 12.6787 29.1435 12.7344 29.035C12.79 28.9265 12.7911 28.8043 12.7373 28.6951Z" fill="white"/>
<path id="clock-stick2" d="M27.1842 24.8476C27.2342 25.0904 27.1648 25.3395 26.9914 25.5404C26.8179 25.7412 26.5546 25.8774 26.2591 25.9189L16.6624 27.2597C16.516 27.2801 16.3662 27.2767 16.2214 27.2496C16.0766 27.2225 15.9398 27.1722 15.8186 27.1016C15.6975 27.0311 15.5945 26.9416 15.5155 26.8383C15.4364 26.7351 15.383 26.62 15.3581 26.4998C15.3332 26.3796 15.3373 26.2565 15.3703 26.1376C15.4034 26.0186 15.4646 25.9062 15.5505 25.8068C15.6364 25.7073 15.7453 25.6227 15.871 25.5577C15.9967 25.4928 16.1368 25.4489 16.2832 25.4285L25.8799 24.0877C26.1755 24.0467 26.4788 24.1037 26.7233 24.2461C26.9679 24.3886 27.1336 24.6049 27.1842 24.8476Z" fill="#3F3D56"/>
<path id="clock-stick1" d="M37.2844 33.5806C37.1465 33.6945 36.9593 33.7588 36.7638 33.7594C36.5683 33.7601 36.3804 33.697 36.2415 33.584L25.9108 25.1654C25.7722 25.0523 25.6939 24.8985 25.6932 24.7379C25.6926 24.5774 25.7695 24.4232 25.9072 24.3092C26.0449 24.1953 26.232 24.1308 26.4275 24.1301C26.6229 24.1294 26.8107 24.1925 26.9496 24.3055L37.2803 32.724C37.4189 32.8372 37.4972 32.991 37.498 33.1516C37.4988 33.3122 37.422 33.4665 37.2844 33.5806Z" fill="#3F3D56"/>
<path id="Vector_24" d="M26.4334 26.1179C27.1394 26.1179 27.7117 25.6478 27.7117 25.068C27.7117 24.4881 27.1394 24.0181 26.4334 24.0181C25.7275 24.0181 25.1552 24.4881 25.1552 25.068C25.1552 25.6478 25.7275 26.1179 26.4334 26.1179Z" fill="#CCCCCC"/>
<path id="Vector_25" d="M17.6286 6.86268C15.6665 9.39639 12.6727 11.0779 8.98067 12.1825C8.90772 12.2274 8.82472 12.26 8.7364 12.2786C8.64809 12.2971 8.5562 12.3012 8.46597 12.2905C8.37575 12.2799 8.28896 12.2547 8.21056 12.2166C8.13215 12.1784 8.06368 12.1279 8.00904 12.068C6.00354 9.86861 6.45638 6.7253 9.10322 5.04474C9.74313 4.63915 10.4748 4.342 11.2556 4.17054C12.0365 3.99909 12.8511 3.95674 13.652 4.04597C14.453 4.13519 15.2244 4.3542 15.9215 4.6903C16.6185 5.02639 17.2274 5.47286 17.7126 6.0038L17.7681 6.06463C17.8227 6.12455 17.8625 6.19273 17.885 6.26526C17.9076 6.3378 17.9125 6.41328 17.8996 6.48738C17.8866 6.56149 17.856 6.63277 17.8096 6.69717C17.7631 6.76156 17.7016 6.8178 17.6286 6.86268Z" fill="#E6E6E6"/>
<path id="Vector_26" d="M35.1541 6.0038C35.6394 5.47286 36.2482 5.02639 36.9453 4.6903C37.6423 4.3542 38.4137 4.13519 39.2147 4.04597C40.0157 3.95674 40.8302 3.99909 41.6111 4.17054C42.392 4.342 43.1236 4.63915 43.7635 5.04474C46.4103 6.7253 46.8632 9.86861 44.8577 12.068C44.803 12.1279 44.7346 12.1784 44.6562 12.2166C44.5778 12.2547 44.491 12.2799 44.4008 12.2905C44.3105 12.3012 44.2186 12.2971 44.1303 12.2786C44.042 12.26 43.959 12.2274 43.886 12.1825C40.4586 11.1047 37.6479 9.23959 35.2381 6.86268C35.0907 6.77204 34.9933 6.63704 34.9671 6.48738C34.941 6.33772 34.9883 6.18565 35.0986 6.06463L35.1541 6.0038Z" fill="#E6E6E6"/>
<path id="Vector_27" d="M39.0194 11.3384C39.9425 11.3384 40.6909 10.7237 40.6909 9.96548C40.6909 9.20722 39.9425 8.59253 39.0194 8.59253C38.0962 8.59253 37.3478 9.20722 37.3478 9.96548C37.3478 10.7237 38.0962 11.3384 39.0194 11.3384Z" fill="#E6E6E6"/>
<path id="Vector_28" d="M26.335 8.10797C27.2582 8.10797 28.0066 7.49327 28.0066 6.73501C28.0066 5.97675 27.2582 5.36206 26.335 5.36206C25.4118 5.36206 24.6635 5.97675 24.6635 6.73501C24.6635 7.49327 25.4118 8.10797 26.335 8.10797Z" fill="#E6E6E6"/>
<path id="Vector_29" d="M14.2407 11.1771C15.1639 11.1771 15.9123 10.5624 15.9123 9.80411C15.9123 9.04584 15.1639 8.43115 14.2407 8.43115C13.3175 8.43115 12.5691 9.04584 12.5691 9.80411C12.5691 10.5624 13.3175 11.1771 14.2407 11.1771Z" fill="#E6E6E6"/>
<path id="Vector_30" d="M44.1035 51.9192L44.1754 52.0685H44.1035V51.9192Z" fill="#2F2E41"/>
</g>
</g>
<defs>
<clipPath id="clip0_5_73">
<rect width="414" height="249" fill="white" transform="translate(-16 -59)"/>
</clipPath>
<clipPath id="clip1_5_73">
<rect width="115.227" height="67.419" fill="white" transform="matrix(0.999929 0.0119073 -0.0099473 0.99995 133.566 65.7578)"/>
</clipPath>
<clipPath id="clip2_5_73">
<rect width="66.4375" height="51.0373" fill="white" transform="translate(-1 4)"/>
</clipPath>
</defs>
</svg>
